<mxfile host="app.diagrams.net" agent="Mozilla/5.0 (Windows NT 10.0; Win64; x64) AppleWebKit/537.36 (KHTML, like Gecko) Chrome/122.0.0.0 Safari/537.36" version="24.8.6">
  <diagram name="Trang-1" id="mm3qg7Fvd-G7XctZvpRz">
    <mxGraphModel grid="1" page="1" gridSize="10" guides="1" tooltips="1" connect="1" arrows="1" fold="1" pageScale="1" pageWidth="827" pageHeight="1169" math="0" shadow="0">
      <root>
        <mxCell id="0" />
        <mxCell id="1" parent="0" />
        <mxCell id="JSxccPz61bcRk5u1pSLv-3" value="" style="edgeStyle=orthogonalEdgeStyle;rounded=0;orthogonalLoop=1;jettySize=auto;html=1;" edge="1" parent="1" source="JSxccPz61bcRk5u1pSLv-1" target="JSxccPz61bcRk5u1pSLv-2">
          <mxGeometry relative="1" as="geometry" />
        </mxCell>
        <mxCell id="JSxccPz61bcRk5u1pSLv-1" value="Bắt Đầu" style="ellipse;whiteSpace=wrap;html=1;" vertex="1" parent="1">
          <mxGeometry x="355" y="20" width="120" height="80" as="geometry" />
        </mxCell>
        <mxCell id="JSxccPz61bcRk5u1pSLv-15" style="edgeStyle=orthogonalEdgeStyle;rounded=0;orthogonalLoop=1;jettySize=auto;html=1;" edge="1" parent="1" source="JSxccPz61bcRk5u1pSLv-2" target="JSxccPz61bcRk5u1pSLv-4">
          <mxGeometry relative="1" as="geometry" />
        </mxCell>
        <mxCell id="JSxccPz61bcRk5u1pSLv-2" value="Nhập a" style="shape=parallelogram;perimeter=parallelogramPerimeter;whiteSpace=wrap;html=1;fixedSize=1;" vertex="1" parent="1">
          <mxGeometry x="355" y="190" width="120" height="60" as="geometry" />
        </mxCell>
        <mxCell id="JSxccPz61bcRk5u1pSLv-7" value="" style="edgeStyle=orthogonalEdgeStyle;rounded=0;orthogonalLoop=1;jettySize=auto;html=1;" edge="1" parent="1" source="JSxccPz61bcRk5u1pSLv-4" target="JSxccPz61bcRk5u1pSLv-6">
          <mxGeometry relative="1" as="geometry" />
        </mxCell>
        <mxCell id="JSxccPz61bcRk5u1pSLv-8" value="Đúng" style="edgeLabel;html=1;align=center;verticalAlign=middle;resizable=0;points=[];" connectable="0" vertex="1" parent="JSxccPz61bcRk5u1pSLv-7">
          <mxGeometry x="-0.0286" y="2" relative="1" as="geometry">
            <mxPoint as="offset" />
          </mxGeometry>
        </mxCell>
        <mxCell id="JSxccPz61bcRk5u1pSLv-10" value="" style="edgeStyle=orthogonalEdgeStyle;rounded=0;orthogonalLoop=1;jettySize=auto;html=1;" edge="1" parent="1" source="JSxccPz61bcRk5u1pSLv-4" target="JSxccPz61bcRk5u1pSLv-9">
          <mxGeometry relative="1" as="geometry" />
        </mxCell>
        <mxCell id="JSxccPz61bcRk5u1pSLv-11" value="Sai" style="edgeLabel;html=1;align=center;verticalAlign=middle;resizable=0;points=[];" connectable="0" vertex="1" parent="JSxccPz61bcRk5u1pSLv-10">
          <mxGeometry x="-0.1556" y="-1" relative="1" as="geometry">
            <mxPoint as="offset" />
          </mxGeometry>
        </mxCell>
        <mxCell id="JSxccPz61bcRk5u1pSLv-4" value="If a &amp;gt; 5 và a&lt;div&gt;khác 5&lt;/div&gt;" style="rhombus;whiteSpace=wrap;html=1;" vertex="1" parent="1">
          <mxGeometry x="360" y="320" width="110" height="80" as="geometry" />
        </mxCell>
        <mxCell id="JSxccPz61bcRk5u1pSLv-13" style="edgeStyle=orthogonalEdgeStyle;rounded=0;orthogonalLoop=1;jettySize=auto;html=1;" edge="1" parent="1" source="JSxccPz61bcRk5u1pSLv-6" target="JSxccPz61bcRk5u1pSLv-12">
          <mxGeometry relative="1" as="geometry" />
        </mxCell>
        <mxCell id="JSxccPz61bcRk5u1pSLv-6" value="Đạt" style="shape=parallelogram;perimeter=parallelogramPerimeter;whiteSpace=wrap;html=1;fixedSize=1;" vertex="1" parent="1">
          <mxGeometry x="514" y="330" width="120" height="60" as="geometry" />
        </mxCell>
        <mxCell id="JSxccPz61bcRk5u1pSLv-9" value="Không Đạt" style="shape=parallelogram;perimeter=parallelogramPerimeter;whiteSpace=wrap;html=1;fixedSize=1;" vertex="1" parent="1">
          <mxGeometry x="354" y="490" width="120" height="60" as="geometry" />
        </mxCell>
        <mxCell id="JSxccPz61bcRk5u1pSLv-12" value="End" style="ellipse;whiteSpace=wrap;html=1;" vertex="1" parent="1">
          <mxGeometry x="514" y="490" width="120" height="80" as="geometry" />
        </mxCell>
        <mxCell id="JSxccPz61bcRk5u1pSLv-14" style="edgeStyle=orthogonalEdgeStyle;rounded=0;orthogonalLoop=1;jettySize=auto;html=1;entryX=0.05;entryY=0.375;entryDx=0;entryDy=0;entryPerimeter=0;" edge="1" parent="1" source="JSxccPz61bcRk5u1pSLv-9" target="JSxccPz61bcRk5u1pSLv-12">
          <mxGeometry relative="1" as="geometry" />
        </mxCell>
      </root>
    </mxGraphModel>
  </diagram>
</mxfile>
